# xmcd
#
# Track frame offsets:
#	150
#	21885
#	39267
#	46990
#	75805
#	97882
#	116097
#	138392
#	155850
#	174652
#	200215
#	217072
#	240505
#	257895
#
# Disc length: 4110 seconds
#
# Revision: 1
# Processed by: cddbd v1.5.2PL0 Copyright (c) Steve Scherf et al.
# Submitted via: audiograbber 1.83.01
#
DISCID=bf100c0e
DTITLE=Ben Harper - The Will To Live
DYEAR=1997
DGENRE=Blues
TTITLE0=Faded
TTITLE1=Homeless Child
TTITLE2=Number Three
TTITLE3=Roses From My Friends
TTITLE4=Jah Work
TTITLE5=I Want To Be Ready
TTITLE6=The Will To Live
TTITLE7=Ashes
TTITLE8=Widow Of A Living Man
TTITLE9=Glory And Consequence
TTITLE10=Mamas Trippin
TTITLE11=I Shall Not Walk Alone
TTITLE12=Bonus 1
TTITLE13=Bonus 2
EXTD=
EXTT0=
EXTT1=
EXTT2=
EXTT3=
EXTT4=
EXTT5=
EXTT6=
EXTT7=
EXTT8=
EXTT9=
EXTT10=
EXTT11=
EXTT12=
EXTT13=
PLAYORDER=
